<?xml version="1.0" standalone="no"?>
<!DOCTYPE svg PUBLIC "-//W3C//DTD SVG 20010904//EN"
 "http://www.w3.org/TR/2001/REC-SVG-20010904/DTD/svg10.dtd">
<svg version="1.0" xmlns="http://www.w3.org/2000/svg"
 width="578.000000pt" height="553.000000pt" viewBox="0 0 578.000000 553.000000"
 preserveAspectRatio="xMidYMid meet">

<g transform="translate(0.000000,553.000000) scale(0.100000,-0.100000)"
fill="#000000" stroke="none">
<path d="M2667 5519 c-499 -44 -997 -241 -1407 -557 -109 -85 -367 -343 -452
-452 -228 -297 -400 -649 -488 -1000 -198 -799 -21 -1629 488 -2290 85 -109
343 -367 452 -452 297 -228 649 -400 1000 -488 799 -198 1629 -21 2290 488
109 85 367 343 452 452 228 297 400 649 488 1000 198 799 21 1629 -488 2290
-85 109 -343 367 -452 452 -297 228 -649 400 -1000 488 -286 71 -594 95 -883
69z m1168 -1794 c135 -35 273 -132 332 -232 30 -52 63 -153 63 -194 l0 -29
-103 0 -104 0 -16 59 c-21 75 -86 150 -163 186 -203 96 -491 24 -560 -141 -20
-49 -18 -137 6 -183 42 -84 126 -127 365 -191 310 -82 416 -130 505 -228 85
-91 117 -228 87 -368 -51 -239 -248 -378 -564 -400 -169 -11 -356 34 -473 115
-106 73 -189 207 -206 330 l-7 51 105 0 104 0 18 -60 c51 -170 270 -275 503
-240 280 42 406 278 239 446 -63 62 -125 88 -354 148 -194 51 -248 69 -318
103 -175 85 -251 208 -242 397 3 76 9 102 35 157 69 148 209 246 408 285 86
17 256 11 340 -11z m-2015 -416 c0 -226 4 -409 8 -407 5 2 174 186 377 411
l368 407 134 0 135 0 -180 -192 c-412 -443 -512 -553 -510 -560 2 -4 165 -208
363 -454 198 -246 366 -455 373 -465 13 -18 8 -19 -121 -19 l-135 0 -316 395
-316 395 -59 -62 c-32 -35 -72 -79 -89 -99 l-32 -37 0 -296 0 -296 -110 0
-110 0 0 845 0 845 110 0 110 0 0 -411z"/>
</g>
</svg>
